<svg xmlns="http://www.w3.org/2000/svg" viewBox="0 0 288 288"><title>sql-ddm-new</title><path d="M126,112.07c-35.35,0-64-4.94-64-11V220c0,6.09,28.65,11,64,11s64-4.94,64-11V101C190,107.13,161.35,112.07,126,112.07Z" fill="#d1d1d1"/><path d="M62,101V220c0,6.09,28.65,11,64,11V112.07C90.65,112.07,62,107.13,62,101Z" fill="#adadad"/><path d="M181,106.68V225.61c5.71-1.65,9-3.58,9-5.64V101C190,103.1,186.72,105,181,106.68Z" fill="#adadad"/><ellipse cx="126" cy="101.03" rx="64" ry="11.03" fill="#939699"/><path d="M62,175.82c0,6.09,28.65,11,64,11s64-4.94,64-11v9c0,6.09-28.65,11-64,11s-64-4.94-64-11Z" fill="#939699"/><path d="M62,136.18c0,6.09,28.65,11,64,11s64-4.94,64-11v9c0,6.09-28.65,11-64,11s-64-4.94-64-11Z" fill="#939699"/><rect x="90" y="195" width="72" height="45" fill="#099b05" stroke="#ecedf0" stroke-miterlimit="10" stroke-width="5"/><rect x="90" y="132" width="72" height="45" fill="#099b05" stroke="#ecedf0" stroke-miterlimit="10" stroke-width="5"/><rect x="180" y="132" width="72" height="45" fill="#099b05" stroke="#ecedf0" stroke-miterlimit="10" stroke-width="5"/><line x1="162" y1="156" x2="180" y2="156" fill="none" stroke="#ecedf0" stroke-miterlimit="10" stroke-width="4"/><line x1="126" y1="180" x2="126" y2="192" fill="none" stroke="#ecedf0" stroke-miterlimit="10" stroke-width="4"/></svg>