<?xml version="1.0" encoding="UTF-8" standalone="no"?>
<svg
   xmlns:dc="http://purl.org/dc/elements/1.1/"
   xmlns:cc="http://creativecommons.org/ns#"
   xmlns:rdf="http://www.w3.org/1999/02/22-rdf-syntax-ns#"
   xmlns:svg="http://www.w3.org/2000/svg"
   xmlns="http://www.w3.org/2000/svg"
   viewBox="0 0 1394.64 388.07999"
   height="388.07999"
   width="1394.64"
   xml:space="preserve"
   id="svg2"
   version="1.1"><metadata
     id="metadata8"><rdf:RDF><cc:Work
         rdf:about=""><dc:format>image/svg+xml</dc:format><dc:type
           rdf:resource="http://purl.org/dc/dcmitype/StillImage" /></cc:Work></rdf:RDF></metadata><defs
     id="defs6" /><g
     transform="matrix(1.3333333,0,0,-1.3333333,0,388.08)"
     id="g10"><g
       transform="scale(0.1)"
       id="g12"><path
         id="path14"
         style="fill:#ffffff;fill-opacity:1;fill-rule:nonzero;stroke:none"
         d="M 5494.95,1537.22 H 5106.6 v 325.26 h -179.42 v -813.55 h 179.42 v 349.83 h 388.35 v -349.01 h 179.42 v 812.73 h -179.42 v -325.26" /><path
         id="path16"
         style="fill:#ffffff;fill-opacity:1;fill-rule:nonzero;stroke:none"
         d="m 6637.04,1853.47 c -13.11,8.19 -26.22,13.11 -39.33,14.74 -13.93,1.64 -23.76,2.46 -29.49,2.46 -18.03,0 -36.87,-3.27 -56.53,-9.83 -19.67,-6.55 -37.69,-21.3 -54.08,-45.06 l -371.13,-547.29 c -2.97,-5.07 -7.38,-6.55 -12.29,-6.55 -5.74,0 -8.18,2.37 -10.26,5.74 -2.09,3.36 -2.03,9.01 -2.03,16.38 l 1.64,578.42 h -173.69 v -707.87 c 0,-11.47 1.63,-23.75 4.09,-36.86 2.46,-13.11 8.2,-25.4 16.39,-36.87 8.19,-11.47 19.66,-21.3 35.23,-29.5 15.56,-8.19 36.87,-12.29 63.08,-12.29 30.32,0 54.08,5.74 70.46,16.39 16.39,10.65 31.95,27.04 45.88,48.34 l 357.21,523.52 c 6.56,9.84 10.65,15.57 13.93,18.03 2.46,2.46 4.92,4.09 7.37,4.09 5.74,0 9.22,-3.51 9.02,-6.55 0,-4.1 0,-9.01 0,-15.57 v -578.41 l -5.74,-0.82 h 180.24 v 698.03 c 0,30.31 -5.73,54.07 -15.56,70.46 -9.83,16.38 -21.3,28.67 -34.41,36.87" /><path
         id="path18"
         style="fill:#ffffff;fill-opacity:1;fill-rule:nonzero;stroke:none"
         d="m 7095.84,1187.39 193.35,504.68 c 1.64,4.91 4.1,9.83 7.38,14.75 3.27,4.09 5.73,6.55 9.01,6.55 4.91,0 8.19,-2.46 9.83,-7.37 1.64,-4.92 3.28,-9.84 5.74,-13.93 l 194.99,-504.68 z m 340.83,604.63 c -8.2,20.48 -21.31,38.51 -39.33,54.89 -17.21,16.39 -48.34,24.58 -90.94,24.58 -41.79,0 -72.1,-7.37 -90.12,-22.94 -18.85,-14.75 -32.78,-34.41 -41.79,-56.53 l -253.16,-604.63 h -73.73 v -138.46 h 915.96 v 138.46 h -72.1 l -254.79,604.63" /><path
         id="path20"
         style="fill:#ffffff;fill-opacity:1;fill-rule:nonzero;stroke:none"
         d="m 8473.06,1230.81 c 0,-6.56 -0.81,-12.29 -1.63,-18.03 -0.82,-5.73 -4.1,-11.47 -10.65,-16.38 -5.74,-4.92 -13.11,-7.38 -20.49,-8.2 -7.37,-0.81 -13.92,-0.81 -18.84,-0.81 h -249.88 c -10.65,0 -22.12,2.45 -32.77,7.37 -10.65,5.73 -19.67,11.47 -25.4,17.2 -10.65,10.65 -18.03,26.22 -20.48,44.25 -2.46,18.02 -4.1,33.59 -4.1,45.88 0,29.49 2.46,50.79 7.37,63.08 4.92,12.29 9.02,20.48 12.29,24.58 9.83,13.11 22.12,21.3 36.05,23.76 13.93,2.46 24.58,4.1 30.31,4.1 h 298.22 z m 120.44,568.58 c -18.02,19.67 -42.6,34.41 -72.1,45.88 -29.49,11.48 -62.26,17.21 -96.67,17.21 H 7963.47 V 1723.2 h 400.63 c 13.93,0 29.49,-1.64 45.06,-5.73 15.57,-4.1 29.5,-13.93 41.78,-29.5 9.84,-12.29 16.39,-25.4 18.85,-38.51 2.46,-13.1 4.1,-26.21 4.1,-38.5 v -56.53 h -353.94 c -21.3,0 -45.06,-1.64 -71.28,-6.56 -26.21,-4.91 -52.43,-18.84 -77.83,-40.96 -30.31,-26.22 -49.98,-57.35 -57.35,-91.76 -7.37,-34.41 -11.47,-69.64 -11.47,-105.69 0,-15.57 0.82,-32.77 1.64,-52.44 0.82,-19.66 3.28,-39.32 8.19,-59.8 4.1,-20.48 11.47,-40.15 21.3,-58.99 9.83,-18.85 22.94,-36.05 39.33,-49.98 23.76,-20.48 48.34,-31.95 74.55,-35.23 26.22,-3.27 50.8,-4.91 72.92,-4.91 h 388.35 c 19.66,0 39.32,2.45 59.8,5.73 20.49,4.1 37.69,13.11 52.44,27.04 14.75,14.75 23.76,31.95 27.03,52.43 4.1,20.49 5.74,37.69 5.74,52.44 v 421.93 c 0,45.88 -5.73,85.21 -17.2,117.16 -10.66,32.77 -25.4,57.35 -42.61,74.55" /><path
         id="path22"
         style="fill:#ffffff;fill-opacity:1;fill-rule:nonzero;stroke:none"
         d="m 8807.34,1724.02 h 305.59 v -675.09 h 178.61 v 675.09 h 305.59 v 138.46 h -789.79 v -138.46" /><path
         id="path24"
         style="fill:#ffffff;fill-opacity:1;fill-rule:nonzero;stroke:none"
         d="m 10279.6,1230.81 c 0,-6.56 -0.8,-12.29 -1.6,-18.03 -0.9,-5.73 -4.1,-11.47 -10.7,-16.38 -5.7,-4.92 -13.1,-7.38 -20.5,-8.2 -7.3,-0.81 -13.9,-0.81 -18.8,-0.81 h -249.9 c -10.65,0 -22.12,2.45 -32.77,7.37 -10.65,5.73 -18.84,11.47 -25.4,17.2 -10.65,10.65 -18.02,26.22 -20.48,44.25 -2.46,18.02 -4.1,33.59 -4.1,45.88 0,29.49 2.46,50.79 7.38,63.08 4.91,12.29 9.01,20.48 12.29,24.58 9.83,13.11 22.12,21.3 36.04,23.76 13.93,2.46 24.58,4.1 30.32,4.1 h 298.22 z m 163,494.03 c -10.6,32.77 -25.4,57.35 -42.6,74.55 -18,19.67 -42.6,34.41 -72.1,45.88 -29.5,11.48 -62.2,17.21 -96.6,17.21 H 9769.18 V 1723.2 h 400.62 c 13.9,0 29.5,-1.64 45.1,-5.73 15.5,-4.1 29.5,-13.93 41.8,-29.5 9.8,-12.29 16.3,-25.4 18.8,-38.51 2.5,-13.1 4.1,-26.21 4.1,-38.5 v -56.53 h -353.11 c -21.31,0 -45.07,-1.64 -71.28,-6.56 -26.22,-4.91 -52.44,-18.84 -77.84,-40.96 -30.31,-26.22 -49.97,-57.35 -57.35,-91.76 -7.37,-34.41 -11.47,-69.64 -11.47,-105.69 0,-15.57 0.82,-32.77 1.64,-52.44 0.82,-19.66 3.28,-39.32 8.2,-59.8 4.09,-20.48 11.47,-40.15 21.3,-58.99 9.83,-18.85 22.94,-36.05 39.32,-49.98 23.76,-20.48 48.34,-31.95 74.56,-35.23 26.22,-3.27 50.79,-4.91 72.92,-4.91 h 388.31 c 19.7,0 39.4,2.45 59.8,5.73 20.5,4.1 37.7,13.11 52.5,27.04 14.7,14.75 23.7,31.95 27,52.43 4.1,20.49 5.7,37.69 5.7,52.44 v 421.93 c 0,45.88 -5.7,85.21 -17.2,117.16" /><path
         id="path26"
         style="fill:#ffffff;fill-opacity:1;fill-rule:nonzero;stroke:none"
         d="m 4584.72,1368.45 c -3.28,-24.58 -7.38,-45.06 -12.29,-61.45 -4.92,-16.38 -9.83,-29.49 -14.75,-38.51 -4.91,-9.01 -9.83,-16.38 -13.93,-21.3 -12.29,-16.38 -27.03,-29.49 -44.24,-38.5 -17.2,-9.01 -34.41,-16.39 -51.61,-20.49 -17.21,-4.91 -35.23,-7.37 -53.26,-8.19 -18.02,-0.82 -34.41,-1.64 -48.34,-1.64 -15.56,0 -31.95,0.82 -49.15,1.64 -17.21,0.82 -35.23,4.1 -52.44,8.19 -17.2,4.92 -34.41,11.48 -50.79,20.49 -16.39,9.01 -31.14,22.12 -43.42,38.5 -20.49,26.22 -33.6,58.17 -38.51,95.86 -4.92,37.69 -7.38,72.1 -7.38,103.23 0,36.05 1.64,66.36 4.92,90.94 3.28,25.4 6.55,45.88 10.65,63.91 4.1,17.2 9.01,31.13 13.93,41.78 4.92,9.83 10.65,18.03 15.57,24.58 12.28,16.39 27.03,28.67 44.24,37.69 17.2,9.01 35.23,14.74 53.25,18.84 18.02,4.1 36.05,6.55 53.25,7.37 17.21,0.82 32.78,1.64 45.88,1.64 13.11,0 28.68,-0.82 45.88,-1.64 17.21,-0.82 35.23,-3.27 54.08,-7.37 18.84,-4.1 36.05,-10.65 54.07,-18.84 18.03,-8.2 31.95,-21.3 44.24,-37.69 3.28,-4.1 7.38,-10.65 12.29,-19.66 4.92,-9.02 9.83,-22.12 14.75,-37.69 4.91,-15.57 9.01,-36.05 12.29,-61.45 3.28,-25.4 5.73,-54.89 5.73,-90.12 0.82,-35.23 -1.63,-65.54 -4.91,-90.12 z m 90.12,418.65 c -21.3,19.67 -45.88,35.23 -72.92,46.7 -27.03,11.47 -54.89,20.49 -84.38,25.4 -29.5,4.92 -58.17,8.2 -88.49,9.83 -29.49,1.64 -56.53,2.46 -81.11,2.46 -26.21,0 -54.07,-0.82 -82.75,-2.46 -28.67,-1.63 -57.34,-4.91 -85.2,-9.83 -27.86,-4.91 -55.71,-13.93 -82.75,-25.4 -27.04,-11.47 -51.61,-27.03 -74.55,-46.7 -33.6,-29.49 -58.17,-65.54 -72.1,-106.5 -13.93,-41.79 -22.12,-89.3 -24.58,-143.38 h -122.89 v 325.26 h -179.43 v -655.43 -51.62 c 0,-11.47 1.64,-23.76 4.1,-36.86 2.46,-13.11 8.19,-25.4 16.38,-36.87 8.2,-11.47 19.67,-21.3 35.23,-29.5 15.57,-8.19 36.05,-12.29 63.09,-12.29 h 61.45 v 358.85 h 122.89 c -2.46,-64.72 5.73,-118.79 24.58,-163.86 18.02,-45.06 42.6,-81.1 72.09,-107.32 22.13,-20.48 47.52,-36.87 74.56,-48.34 27.04,-11.47 54.89,-20.48 82.75,-26.22 27.85,-5.73 56.53,-9.01 85.2,-10.65 28.68,-1.64 56.54,-2.46 82.75,-2.46 24.58,0 51.62,0.82 80.29,2.46 29.5,1.64 58.17,4.92 88.49,10.65 29.49,5.74 58.17,13.93 85.2,26.22 27.04,11.47 51.62,27.86 72.92,48.34 32.77,31.95 58.17,76.19 75.37,134.36 17.21,58.17 26.22,125.35 26.22,201.55 -1.64,83.56 -11.47,152.38 -30.31,204.82 -19.66,52.43 -43.42,92.58 -72.1,118.79" /><path
         id="path28"
         style="fill:#ed1c24;fill-opacity:1;fill-rule:nonzero;stroke:none"
         d="m 664.438,1735.29 v -559.88 l -321.29,279.94 z" /><path
         id="path30"
         style="fill:#ed1c24;fill-opacity:1;fill-rule:nonzero;stroke:none"
         d="M 1093.94,2212.35 698.078,1816.49 668.832,2241.6 Z" /><path
         id="path32"
         style="fill:#ed1c24;fill-opacity:1;fill-rule:nonzero;stroke:none"
         d="m 1094.04,698.238 -425.208,-29.25 29.246,425.102 z" /><path
         id="path34"
         style="fill:#ed1c24;fill-opacity:1;fill-rule:nonzero;stroke:none"
         d="M 1735.13,664.602 1455.19,343.309 1175.25,664.602 Z" /><path
         id="path36"
         style="fill:#ed1c24;fill-opacity:1;fill-rule:nonzero;stroke:none"
         d="m 2241.44,668.988 -425.11,29.25 395.97,395.852 z" /><path
         id="path38"
         style="fill:#ed1c24;fill-opacity:1;fill-rule:nonzero;stroke:none"
         d="m 2567.23,1455.35 -321.29,-279.94 v 559.88 z" /><path
         id="path40"
         style="fill:#ed1c24;fill-opacity:1;fill-rule:nonzero;stroke:none"
         d="m 2241.44,2241.6 -29.14,-425.11 -395.97,395.86 z" /><path
         id="path42"
         style="fill:#ed1c24;fill-opacity:1;fill-rule:nonzero;stroke:none"
         d="m 1735.13,2246.1 h -559.88 l 279.94,321.18 z" /><path
         id="path44"
         style="fill:#cf181f;fill-opacity:1;fill-rule:nonzero;stroke:none"
         d="m 661.066,1782.8 -341.003,-297.08 -206.235,523.99 516.168,224.23 31.07,-451.14" /><path
         id="path46"
         style="fill:#cf181f;fill-opacity:1;fill-rule:nonzero;stroke:none"
         d="M 661.066,1127.25 629.996,676.109 113.828,900.879 320.063,1424.33 661.066,1127.25" /><path
         id="path48"
         style="fill:#cf181f;fill-opacity:1;fill-rule:nonzero;stroke:none"
         d="M 1421.6,322.789 897.828,116.988 673.492,632.73 1124.63,663.691 1421.6,322.789" /><path
         id="path50"
         style="fill:#cf181f;fill-opacity:1;fill-rule:nonzero;stroke:none"
         d="M 2231.21,632.73 2006.66,116.879 1483.1,322.789 1780.07,663.691 2231.21,632.73" /><path
         id="path52"
         style="fill:#cf181f;fill-opacity:1;fill-rule:nonzero;stroke:none"
         d="m 2790.66,900.879 -515.96,-224.77 -31.06,451.141 341,297.08 206.02,-523.451" /><path
         id="path54"
         style="fill:#cf181f;fill-opacity:1;fill-rule:nonzero;stroke:none"
         d="m 2796.55,2012.06 -211.8,-526.45 -341.11,297.19 31.06,451.35 521.85,-222.09" /><path
         id="path56"
         style="fill:#cf181f;fill-opacity:1;fill-rule:nonzero;stroke:none"
         d="m 2231.21,2277.32 -451.14,-30.96 -297.08,340.9 523.56,206.45 224.66,-516.39" /><path
         id="path58"
         style="fill:#cf181f;fill-opacity:1;fill-rule:nonzero;stroke:none"
         d="m 1421.6,2587.26 -297.08,-340.9 -451.133,30.96 224.441,516.39 523.772,-206.45" /><path
         id="path60"
         style="fill:#c81a38;fill-opacity:1;fill-rule:nonzero;stroke:none"
         d="M 617.516,2267.04 128.668,2054.6 c 8.781,19.49 17.891,38.88 27.641,57.95 68.242,134.56 155.019,255.09 256.367,359.33 l 204.84,-204.84" /><path
         id="path62"
         style="fill:#c81a38;fill-opacity:1;fill-rule:nonzero;stroke:none"
         d="M 288.828,1436.87 90.4219,933.34 c -43.711,125.13 -71.8867,252.19 -83.99221,380.54 -3.85938,41.03 -5.894534,82.06 -6.324221,122.99 H 288.828" /><path
         id="path64"
         style="fill:#c81a38;fill-opacity:1;fill-rule:nonzero;stroke:none"
         d="M 1970.18,93.1992 C 1814.19,34.4883 1646.64,2.25 1473.51,0.101563 V 288.512 L 1970.18,93.1992" /><path
         id="path66"
         style="fill:#c81a38;fill-opacity:1;fill-rule:nonzero;stroke:none"
         d="m 2781.6,855.988 c -8.78,-19.5 -17.89,-38.886 -27.53,-57.957 C 2685.83,663.359 2598.94,542.84 2497.49,438.602 l -204.52,204.519 488.63,212.867" /><path
         id="path68"
         style="fill:#c81a38;fill-opacity:1;fill-rule:nonzero;stroke:none"
         d="m 2910.27,1473.29 h -288.29 l 200.12,497.53 c 42.42,-123.1 69.96,-248.02 81.85,-374.11 3.86,-41.25 5.78,-82.39 6.32,-123.42" /><path
         id="path70"
         style="fill:#c81a38;fill-opacity:1;fill-rule:nonzero;stroke:none"
         d="m 1437.08,2910.48 v -288.94 l -496.881,195.84 c 155.991,58.71 323.651,90.96 496.881,93.1" /><path
         id="path72"
         style="fill:#c81a38;fill-opacity:1;fill-rule:nonzero;stroke:none"
         d="m 856.207,128.66 c -19.496,8.789 -38.891,17.891 -57.961,27.539 -134.664,68.242 -255.187,155.129 -359.43,256.582 l 204.52,204.52 212.871,-488.641" /><path
         id="path74"
         style="fill:#c81a38;fill-opacity:1;fill-rule:nonzero;stroke:none"
         d="m 2267.26,2292.75 -212.45,488.85 c 19.5,-8.78 38.89,-17.89 57.96,-27.64 134.56,-68.24 255.09,-155.02 359.33,-256.37 l -204.84,-204.84" /><path
         id="path76"
         style="fill:#ad1827;fill-opacity:1;fill-rule:nonzero;stroke:none"
         d="M 288.828,1473.29 H 0 c 2.14453,170.56 33.7461,338.33 93.3125,496.35 L 288.828,1473.29" /><path
         id="path78"
         style="fill:#ad1827;fill-opacity:1;fill-rule:nonzero;stroke:none"
         d="M 1437.08,288.609 V 0 C 1269.31,2.03125 1100.26,32.7813 933.984,90.8516 L 1437.08,288.609" /><path
         id="path80"
         style="fill:#ad1827;fill-opacity:1;fill-rule:nonzero;stroke:none"
         d="M 2471.78,412.781 C 2349.97,293.648 2208.66,197.34 2054.06,127.809 l 213.2,489.492 204.52,-204.52" /><path
         id="path82"
         style="fill:#ad1827;fill-opacity:1;fill-rule:nonzero;stroke:none"
         d="M 413.105,438.602 C 293.973,560.41 197.66,701.719 128.133,856.309 L 617.621,643.121 413.105,438.602" /><path
         id="path84"
         style="fill:#ad1827;fill-opacity:1;fill-rule:nonzero;stroke:none"
         d="m 2910.38,1436.87 c -2.25,-170.45 -33.86,-338.01 -93.42,-495.921 l -195.2,495.921 h 288.62" /><path
         id="path86"
         style="fill:#ad1827;fill-opacity:1;fill-rule:nonzero;stroke:none"
         d="m 1976.28,2819.74 -502.77,-198.2 v 289.05 c 167.66,-2.14 336.61,-32.89 502.77,-90.85" /><path
         id="path88"
         style="fill:#ad1827;fill-opacity:1;fill-rule:nonzero;stroke:none"
         d="M 856.316,2782.89 643.336,2292.75 438.387,2497.7 c 121.918,119.24 263.336,215.55 417.929,285.19" /><path
         id="path90"
         style="fill:#ad1827;fill-opacity:1;fill-rule:nonzero;stroke:none"
         d="m 2783.32,2054.16 -490.14,212.99 204.95,204.94 c 119.24,-121.91 215.55,-263.33 285.19,-417.93" /><path
         id="path92"
         style="fill:#ffffff;fill-opacity:1;fill-rule:nonzero;stroke:none"
         d="m 3860.29,265.488 h -34.57 v 63.043 h -170.14 v 246.481 h 36.84 V 353.98 h 131.03 v 221.032 h 36.84 V 265.488" /><path
         id="path94"
         style="fill:#ffffff;fill-opacity:1;fill-rule:nonzero;stroke:none"
         d="m 4093.47,328.531 h -169.38 v 246.481 h 165.58 V 549.191 H 3960.92 V 468.68 h 116.21 v -25.828 h -116.21 v -88.493 h 132.55 v -25.828" /><path
         id="path96"
         style="fill:#ffffff;fill-opacity:1;fill-rule:nonzero;stroke:none"
         d="m 4349.05,328.531 h -36.84 V 442.852 H 4181.19 V 328.531 h -36.84 v 246.481 h 36.84 V 468.68 h 131.02 v 106.332 h 36.84 V 328.531" /><path
         id="path98"
         style="fill:#ffffff;fill-opacity:1;fill-rule:nonzero;stroke:none"
         d="m 4617.55,328.531 h -36.83 V 442.852 H 4449.69 V 328.531 h -36.84 v 246.481 h 36.84 V 468.68 h 131.03 v 106.332 h 36.83 V 328.531" /><path
         id="path100"
         style="fill:#ffffff;fill-opacity:1;fill-rule:nonzero;stroke:none"
         d="m 4846.55,391.961 v 117.348 c 0,30.382 -22.79,45.582 -68.36,45.582 -9.63,0 -18.11,-0.582 -25.45,-1.711 -7.34,-1.149 -14.43,-3.301 -21.27,-6.461 -6.83,-3.168 -12.14,-7.86 -15.95,-14.059 -3.79,-6.199 -5.69,-13.98 -5.69,-23.351 V 391.961 c 0,-28.359 22.91,-42.531 68.74,-42.531 45.32,0 67.98,14.172 67.98,42.531 z m 35.7,116.59 V 391.578 c 0,-13.418 -3.23,-24.816 -9.69,-34.18 -6.45,-9.378 -15.25,-16.269 -26.39,-20.699 -11.15,-4.429 -22.16,-7.527 -33.04,-9.301 -10.89,-1.769 -22.67,-2.66 -35.32,-2.66 -68.87,0 -103.3,22.274 -103.3,66.84 v 116.594 c 0,47.098 34.43,70.637 103.3,70.637 69.62,0 104.44,-23.418 104.44,-70.258" /><path
         id="path102"
         style="fill:#ffffff;fill-opacity:1;fill-rule:nonzero;stroke:none"
         d="m 5104.41,331.949 c -22.02,-4.808 -45.07,-7.211 -69.11,-7.211 -69.12,0 -103.69,22.274 -103.69,66.84 v 116.973 c 0,47.09 34.57,70.64 103.69,70.64 23.03,0 45.57,-2.41 67.59,-7.222 v -27.348 c -24.3,6.078 -46.59,9.117 -66.84,9.117 -9.62,0 -18.1,-0.558 -25.44,-1.707 -7.34,-1.133 -14.56,-3.16 -21.65,-6.082 -7.09,-2.898 -12.53,-7.461 -16.33,-13.66 -3.8,-6.219 -5.7,-13.988 -5.7,-23.359 V 393.469 c 0,-28.348 23.55,-42.528 70.64,-42.528 20.25,0 42.54,3.039 66.84,9.118 v -28.11" /><path
         id="path104"
         style="fill:#ffffff;fill-opacity:1;fill-rule:nonzero;stroke:none"
         d="m 5334.56,549.191 h -83.16 v -220.66 h -37.23 v 220.66 h -83.55 v 25.821 h 203.94 v -25.821" /><path
         id="path106"
         style="fill:#ffffff;fill-opacity:1;fill-rule:nonzero;stroke:none"
         d="m 5506.98,383.602 v 30.769 c 0,11.899 -3.87,19.738 -11.58,23.539 -7.73,3.801 -21.46,5.699 -41.22,5.699 h -42.15 v -90.007 h 41.4 c 6.58,0 12.09,0.179 16.52,0.558 4.43,0.391 9.94,1.469 16.53,3.238 6.58,1.774 11.64,4.872 15.18,9.301 3.55,4.43 5.32,10.071 5.32,16.903 z m -131.4,191.41 h 36.83 V 468.68 h 36.84 c 12.4,0 22.85,-0.328 31.33,-0.961 8.48,-0.629 16.97,-1.957 25.45,-3.989 8.48,-2.019 15.25,-4.8 20.32,-8.339 5.06,-3.563 9.12,-8.422 12.15,-14.621 3.04,-6.219 4.56,-13.622 4.56,-22.231 V 382.09 c 0,-35.699 -28.99,-53.559 -86.97,-53.559 h -80.51 v 246.481" /><path
         id="path108"
         style="fill:#ffffff;fill-opacity:1;fill-rule:nonzero;stroke:none"
         d="m 5820.67,379.051 v 37.211 c 0,6.59 -1.33,11.84 -3.99,15.769 -2.66,3.918 -6.84,6.699 -12.54,8.34 -5.68,1.649 -10.76,2.66 -15.18,3.039 -4.44,0.379 -10.7,0.578 -18.81,0.578 h -53.93 V 353.98 h 53.93 c 18.48,0 31.53,1.899 39.12,5.7 7.6,3.789 11.4,10.25 11.4,19.371 z m -8.74,117.34 v 28.871 c 0,9.367 -3.42,15.949 -10.25,19.75 -6.84,3.797 -18.24,5.687 -34.19,5.687 h -51.27 v -83.551 h 52.42 c 15.7,0 26.84,2.34 33.42,7.032 6.57,4.691 9.87,12.082 9.87,22.211 z m 45.58,-77.473 V 377.52 c 0,-17.969 -6.84,-30.629 -20.51,-37.981 -13.67,-7.34 -35.96,-11.008 -66.85,-11.008 h -90.76 v 246.481 h 88.1 c 21.28,0 37.92,-2.16 49.96,-6.453 12.02,-4.309 19.86,-9.629 23.54,-15.95 3.66,-6.339 5.5,-14.437 5.5,-24.32 v -33.027 c 0,-10.133 -2.84,-17.864 -8.54,-23.172 -5.7,-5.32 -14.12,-9.25 -25.25,-11.77 v -1.519 c 13.16,-2.281 23.92,-6.832 32.28,-13.68 8.35,-6.832 12.53,-15.562 12.53,-26.203" /><path
         id="path110"
         style="fill:#ffffff;fill-opacity:1;fill-rule:nonzero;stroke:none"
         d="m 6046.64,428.789 -41.77,111.281 h -3.42 l -41.77,-111.281 z m 75.57,-100.258 h -38.34 l -28.11,74.821 h -105.58 l -27.73,-74.821 H 5886 l 97.97,246.481 h 42.55 l 95.69,-246.481" /><path
         id="path112"
         style="fill:#ffffff;fill-opacity:1;fill-rule:nonzero;stroke:none"
         d="m 6448.83,328.531 h -289.02 v 246.481 h 36.84 V 353.98 h 89.25 v 221.032 h 36.84 V 353.98 h 89.25 v 221.032 h 36.84 V 328.531" /><path
         id="path114"
         style="fill:#ffffff;fill-opacity:1;fill-rule:nonzero;stroke:none"
         d="M 6557.43,328.531 H 6513 v 246.481 h 33.8 V 371.441 l 132.54,203.571 h 44.44 V 328.531 h -33.81 V 535.52 L 6557.43,328.531" /><path
         id="path116"
         style="fill:#ffffff;fill-opacity:1;fill-rule:nonzero;stroke:none"
         d="m 6981.65,328.531 h -42.16 L 6870,428.789 6800.49,328.531 h -42.15 l 90.76,125.707 -86.97,120.774 h 42.16 l 65.71,-95.321 65.69,95.321 h 42.16 l -86.97,-120.774 90.77,-125.707" /><path
         id="path118"
         style="fill:#ffffff;fill-opacity:1;fill-rule:nonzero;stroke:none"
         d="m 7251.66,546.531 h -83.55 v -17.472 c 0,-35.95 -2.91,-69.821 -8.74,-101.598 -5.82,-31.77 -13.03,-55.383 -21.65,-70.82 h 113.94 z m -118.11,28.481 h 154.19 V 356.641 h 24.31 v -91.153 h -31.9 v 63.043 H 7111.9 v -63.043 h -32.28 v 91.153 h 21.27 c 11.4,17.211 19.69,39.179 24.87,65.89 5.19,26.699 7.79,64.25 7.79,112.598 v 39.883" /><path
         id="path120"
         style="fill:#ffffff;fill-opacity:1;fill-rule:nonzero;stroke:none"
         d="m 7491.69,428.789 -41.78,111.281 h -3.42 l -41.77,-111.281 z m 75.56,-100.258 h -38.34 l -28.11,74.821 h -105.58 l -27.73,-74.821 h -36.45 l 97.98,246.481 h 42.54 l 95.69,-246.481" /><path
         id="path122"
         style="fill:#ffffff;fill-opacity:1;fill-rule:nonzero;stroke:none"
         d="m 7809.56,328.531 h -36.85 V 442.852 H 7641.69 V 328.531 h -36.83 v 246.481 h 36.83 V 468.68 h 131.02 v 106.332 h 36.85 V 328.531" /><path
         id="path124"
         style="fill:#ffffff;fill-opacity:1;fill-rule:nonzero;stroke:none"
         d="m 8078.05,328.531 h -36.84 V 442.852 H 7910.18 V 328.531 h -36.83 v 246.481 h 36.83 V 468.68 h 131.03 v 106.332 h 36.84 V 328.531" /><path
         id="path126"
         style="fill:#ffffff;fill-opacity:1;fill-rule:nonzero;stroke:none"
         d="m 8384.16,328.531 h -36.84 v 246.481 h 36.84 z m -110.9,55.071 v 30.769 c 0,11.899 -3.87,19.738 -11.58,23.539 -7.72,3.801 -21.45,5.699 -41.21,5.699 h -42.16 v -90.007 h 41.4 c 6.58,0 12.09,0.179 16.52,0.558 4.43,0.391 9.94,1.469 16.53,3.238 6.58,1.774 11.64,4.872 15.18,9.301 3.55,4.43 5.32,10.071 5.32,16.903 z m -131.4,191.41 h 36.83 V 468.68 h 36.85 c 12.4,0 22.84,-0.328 31.32,-0.961 8.49,-0.629 16.97,-1.957 25.45,-3.989 8.48,-2.019 15.26,-4.8 20.32,-8.339 5.07,-3.563 9.12,-8.422 12.16,-14.621 3.04,-6.219 4.55,-13.622 4.55,-22.231 V 382.09 c 0,-35.699 -28.99,-53.559 -86.97,-53.559 h -80.51 v 246.481" /><path
         id="path128"
         style="fill:#ffffff;fill-opacity:1;fill-rule:nonzero;stroke:none"
         d="m 8642.41,328.531 h -42.17 l -69.49,100.258 -69.5,-100.258 h -42.16 l 90.77,125.707 -86.97,120.774 h 42.15 l 65.71,-95.321 65.69,95.321 h 42.16 l -86.97,-120.774 90.78,-125.707" /></g></g></svg>